<svg xmlns="http://www.w3.org/2000/svg" width="760" height="480" viewBox="0 0 760 480">
<rect width="100%" height="100%" fill="white"/>
<text x="380.0" y="28" text-anchor="middle" font-size="20" font-family="Arial">Lambda vs q</text>
<line x1="60" y1="420" x2="700" y2="420" stroke="#222"/>
<line x1="60" y1="60" x2="60" y2="420" stroke="#222"/>
<text x="380.0" y="462" text-anchor="middle" font-size="13" font-family="Arial">lambda_weight</text>
<text x="18" y="240.0" text-anchor="middle" transform="rotate(-90 18 240.0)" font-size="13" font-family="Arial">quality_score</text>
<text x="60" y="440" font-size="11" font-family="Arial">0.76</text>
<text x="700" y="440" text-anchor="end" font-size="11" font-family="Arial">1.38</text>
<text x="52" y="420" text-anchor="end" font-size="11" font-family="Arial">0.238</text>
<text x="52" y="60" text-anchor="end" font-size="11" font-family="Arial">0.701</text>
<circle cx="344.47" cy="296.34" r="4" fill="#1f77b4" fill-opacity="0.68" />
<circle cx="196.11" cy="286.62" r="4" fill="#1f77b4" fill-opacity="0.68" />
<circle cx="386.62" cy="285.02" r="4" fill="#1f77b4" fill-opacity="0.68" />
<circle cx="279.61" cy="299.03" r="4" fill="#1f77b4" fill-opacity="0.68" />
<circle cx="249.94" cy="263.20" r="4" fill="#1f77b4" fill-opacity="0.68" />
<circle cx="397.66" cy="218.66" r="4" fill="#1f77b4" fill-opacity="0.68" />
<circle cx="288.97" cy="308.33" r="4" fill="#1f77b4" fill-opacity="0.68" />
<circle cx="297.34" cy="253.35" r="4" fill="#1f77b4" fill-opacity="0.68" />
<circle cx="340.89" cy="205.97" r="4" fill="#1f77b4" fill-opacity="0.68" />
<circle cx="292.86" cy="278.66" r="4" fill="#1f77b4" fill-opacity="0.68" />
<circle cx="328.16" cy="239.80" r="4" fill="#1f77b4" fill-opacity="0.68" />
<circle cx="306.19" cy="198.88" r="4" fill="#1f77b4" fill-opacity="0.68" />
<circle cx="291.58" cy="244.47" r="4" fill="#1f77b4" fill-opacity="0.68" />
<circle cx="346.66" cy="261.09" r="4" fill="#1f77b4" fill-opacity="0.68" />
<circle cx="288.97" cy="207.39" r="4" fill="#1f77b4" fill-opacity="0.68" />
<circle cx="321.50" cy="142.84" r="4" fill="#1f77b4" fill-opacity="0.68" />
<circle cx="381.69" cy="150.08" r="4" fill="#1f77b4" fill-opacity="0.68" />
<circle cx="224.01" cy="149.50" r="4" fill="#1f77b4" fill-opacity="0.68" />
<circle cx="192.69" cy="153.31" r="4" fill="#1f77b4" fill-opacity="0.68" />
<circle cx="397.72" cy="103.66" r="4" fill="#1f77b4" fill-opacity="0.68" />
<circle cx="336.79" cy="72.81" r="4" fill="#1f77b4" fill-opacity="0.68" />
<circle cx="192.23" cy="203.05" r="4" fill="#1f77b4" fill-opacity="0.68" />
<circle cx="400.37" cy="98.60" r="4" fill="#1f77b4" fill-opacity="0.68" />
<circle cx="334.60" cy="67.60" r="4" fill="#1f77b4" fill-opacity="0.68" />
<circle cx="187.84" cy="129.01" r="4" fill="#1f77b4" fill-opacity="0.68" />
<circle cx="410.12" cy="60.00" r="4" fill="#1f77b4" fill-opacity="0.68" />
<circle cx="329.25" cy="76.31" r="4" fill="#1f77b4" fill-opacity="0.68" />
<circle cx="182.01" cy="165.35" r="4" fill="#1f77b4" fill-opacity="0.68" />
<circle cx="428.54" cy="106.28" r="4" fill="#1f77b4" fill-opacity="0.68" />
<circle cx="316.65" cy="67.25" r="4" fill="#1f77b4" fill-opacity="0.68" />
<circle cx="425.86" cy="265.35" r="4" fill="#1f77b4" fill-opacity="0.68" />
<circle cx="439.01" cy="215.73" r="4" fill="#1f77b4" fill-opacity="0.68" />
<circle cx="62.33" cy="241.31" r="4" fill="#1f77b4" fill-opacity="0.68" />
<circle cx="436.78" cy="259.16" r="4" fill="#1f77b4" fill-opacity="0.68" />
<circle cx="407.62" cy="205.40" r="4" fill="#1f77b4" fill-opacity="0.68" />
<circle cx="82.80" cy="249.12" r="4" fill="#1f77b4" fill-opacity="0.68" />
<circle cx="421.72" cy="267.04" r="4" fill="#1f77b4" fill-opacity="0.68" />
<circle cx="411.51" cy="205.27" r="4" fill="#1f77b4" fill-opacity="0.68" />
<circle cx="93.97" cy="246.36" r="4" fill="#1f77b4" fill-opacity="0.68" />
<circle cx="395.68" cy="258.47" r="4" fill="#1f77b4" fill-opacity="0.68" />
<circle cx="424.57" cy="214.77" r="4" fill="#1f77b4" fill-opacity="0.68" />
<circle cx="106.95" cy="246.34" r="4" fill="#1f77b4" fill-opacity="0.68" />
<circle cx="393.42" cy="254.39" r="4" fill="#1f77b4" fill-opacity="0.68" />
<circle cx="426.19" cy="197.94" r="4" fill="#1f77b4" fill-opacity="0.68" />
<circle cx="107.59" cy="240.43" r="4" fill="#1f77b4" fill-opacity="0.68" />
<circle cx="135.69" cy="145.74" r="4" fill="#1f77b4" fill-opacity="0.68" />
<circle cx="698.34" cy="145.75" r="4" fill="#1f77b4" fill-opacity="0.68" />
<circle cx="93.18" cy="145.75" r="4" fill="#1f77b4" fill-opacity="0.68" />
<circle cx="148.77" cy="145.71" r="4" fill="#1f77b4" fill-opacity="0.68" />
<circle cx="696.25" cy="145.75" r="4" fill="#1f77b4" fill-opacity="0.68" />
<circle cx="82.18" cy="145.75" r="4" fill="#1f77b4" fill-opacity="0.68" />
<circle cx="154.74" cy="145.63" r="4" fill="#1f77b4" fill-opacity="0.68" />
<circle cx="697.23" cy="145.76" r="4" fill="#1f77b4" fill-opacity="0.68" />
<circle cx="75.24" cy="145.75" r="4" fill="#1f77b4" fill-opacity="0.68" />
<circle cx="162.38" cy="145.37" r="4" fill="#1f77b4" fill-opacity="0.68" />
<circle cx="697.40" cy="145.78" r="4" fill="#1f77b4" fill-opacity="0.68" />
<circle cx="67.42" cy="145.74" r="4" fill="#1f77b4" fill-opacity="0.68" />
<circle cx="167.20" cy="144.67" r="4" fill="#1f77b4" fill-opacity="0.68" />
<circle cx="700.00" cy="145.82" r="4" fill="#1f77b4" fill-opacity="0.68" />
<circle cx="60.00" cy="145.69" r="4" fill="#1f77b4" fill-opacity="0.68" />
<circle cx="334.05" cy="416.57" r="4" fill="#1f77b4" fill-opacity="0.68" />
<circle cx="312.30" cy="417.98" r="4" fill="#1f77b4" fill-opacity="0.68" />
<circle cx="280.85" cy="416.64" r="4" fill="#1f77b4" fill-opacity="0.68" />
<circle cx="384.93" cy="418.18" r="4" fill="#1f77b4" fill-opacity="0.68" />
<circle cx="298.00" cy="419.42" r="4" fill="#1f77b4" fill-opacity="0.68" />
<circle cx="244.28" cy="417.34" r="4" fill="#1f77b4" fill-opacity="0.68" />
<circle cx="448.92" cy="409.94" r="4" fill="#1f77b4" fill-opacity="0.68" />
<circle cx="248.85" cy="417.46" r="4" fill="#1f77b4" fill-opacity="0.68" />
<circle cx="229.43" cy="416.52" r="4" fill="#1f77b4" fill-opacity="0.68" />
<circle cx="410.66" cy="420.00" r="4" fill="#1f77b4" fill-opacity="0.68" />
<circle cx="294.75" cy="418.58" r="4" fill="#1f77b4" fill-opacity="0.68" />
<circle cx="221.80" cy="416.42" r="4" fill="#1f77b4" fill-opacity="0.68" />
<circle cx="403.52" cy="411.43" r="4" fill="#1f77b4" fill-opacity="0.68" />
<circle cx="328.31" cy="419.11" r="4" fill="#1f77b4" fill-opacity="0.68" />
<circle cx="195.38" cy="417.85" r="4" fill="#1f77b4" fill-opacity="0.68" />
<circle cx="174.56" cy="296.34" r="4" fill="#d62728" fill-opacity="0.68" />
<circle cx="266.44" cy="286.62" r="4" fill="#d62728" fill-opacity="0.68" />
<circle cx="486.20" cy="285.02" r="4" fill="#d62728" fill-opacity="0.68" />
<circle cx="207.04" cy="299.03" r="4" fill="#d62728" fill-opacity="0.68" />
<circle cx="275.73" cy="263.20" r="4" fill="#d62728" fill-opacity="0.68" />
<circle cx="444.43" cy="218.66" r="4" fill="#d62728" fill-opacity="0.68" />
<circle cx="191.72" cy="308.33" r="4" fill="#d62728" fill-opacity="0.68" />
<circle cx="278.66" cy="253.35" r="4" fill="#d62728" fill-opacity="0.68" />
<circle cx="456.82" cy="205.97" r="4" fill="#d62728" fill-opacity="0.68" />
<circle cx="188.28" cy="278.66" r="4" fill="#d62728" fill-opacity="0.68" />
<circle cx="282.99" cy="239.80" r="4" fill="#d62728" fill-opacity="0.68" />
<circle cx="455.93" cy="198.88" r="4" fill="#d62728" fill-opacity="0.68" />
<circle cx="188.10" cy="244.47" r="4" fill="#d62728" fill-opacity="0.68" />
<circle cx="284.98" cy="261.09" r="4" fill="#d62728" fill-opacity="0.68" />
<circle cx="454.12" cy="207.39" r="4" fill="#d62728" fill-opacity="0.68" />
<circle cx="168.67" cy="142.84" r="4" fill="#d62728" fill-opacity="0.68" />
<circle cx="346.42" cy="150.08" r="4" fill="#d62728" fill-opacity="0.68" />
<circle cx="412.12" cy="149.50" r="4" fill="#d62728" fill-opacity="0.68" />
<circle cx="161.74" cy="153.31" r="4" fill="#d62728" fill-opacity="0.68" />
<circle cx="316.58" cy="103.66" r="4" fill="#d62728" fill-opacity="0.68" />
<circle cx="448.88" cy="72.81" r="4" fill="#d62728" fill-opacity="0.68" />
<circle cx="139.23" cy="203.05" r="4" fill="#d62728" fill-opacity="0.68" />
<circle cx="309.80" cy="98.60" r="4" fill="#d62728" fill-opacity="0.68" />
<circle cx="478.18" cy="67.60" r="4" fill="#d62728" fill-opacity="0.68" />
<circle cx="136.11" cy="129.01" r="4" fill="#d62728" fill-opacity="0.68" />
<circle cx="309.14" cy="60.00" r="4" fill="#d62728" fill-opacity="0.68" />
<circle cx="481.96" cy="76.31" r="4" fill="#d62728" fill-opacity="0.68" />
<circle cx="140.55" cy="165.35" r="4" fill="#d62728" fill-opacity="0.68" />
<circle cx="309.80" cy="106.28" r="4" fill="#d62728" fill-opacity="0.68" />
<circle cx="476.86" cy="67.25" r="4" fill="#d62728" fill-opacity="0.68" />
<circle cx="496.05" cy="265.35" r="4" fill="#d62728" fill-opacity="0.68" />
<circle cx="259.96" cy="215.73" r="4" fill="#d62728" fill-opacity="0.68" />
<circle cx="171.19" cy="241.31" r="4" fill="#d62728" fill-opacity="0.68" />
<circle cx="449.07" cy="259.16" r="4" fill="#d62728" fill-opacity="0.68" />
<circle cx="277.20" cy="205.40" r="4" fill="#d62728" fill-opacity="0.68" />
<circle cx="200.94" cy="249.12" r="4" fill="#d62728" fill-opacity="0.68" />
<circle cx="443.67" cy="267.04" r="4" fill="#d62728" fill-opacity="0.68" />
<circle cx="280.80" cy="205.27" r="4" fill="#d62728" fill-opacity="0.68" />
<circle cx="202.74" cy="246.36" r="4" fill="#d62728" fill-opacity="0.68" />
<circle cx="429.06" cy="258.47" r="4" fill="#d62728" fill-opacity="0.68" />
<circle cx="280.82" cy="214.77" r="4" fill="#d62728" fill-opacity="0.68" />
<circle cx="217.32" cy="246.34" r="4" fill="#d62728" fill-opacity="0.68" />
<circle cx="434.06" cy="254.39" r="4" fill="#d62728" fill-opacity="0.68" />
<circle cx="274.20" cy="197.94" r="4" fill="#d62728" fill-opacity="0.68" />
<circle cx="218.94" cy="240.43" r="4" fill="#d62728" fill-opacity="0.68" />
<circle cx="307.58" cy="145.74" r="4" fill="#d62728" fill-opacity="0.68" />
<circle cx="306.76" cy="145.75" r="4" fill="#d62728" fill-opacity="0.68" />
<circle cx="312.87" cy="145.75" r="4" fill="#d62728" fill-opacity="0.68" />
<circle cx="223.47" cy="145.71" r="4" fill="#d62728" fill-opacity="0.68" />
<circle cx="356.85" cy="145.75" r="4" fill="#d62728" fill-opacity="0.68" />
<circle cx="346.89" cy="145.75" r="4" fill="#d62728" fill-opacity="0.68" />
<circle cx="208.19" cy="145.63" r="4" fill="#d62728" fill-opacity="0.68" />
<circle cx="421.93" cy="145.76" r="4" fill="#d62728" fill-opacity="0.68" />
<circle cx="297.09" cy="145.75" r="4" fill="#d62728" fill-opacity="0.68" />
<circle cx="205.66" cy="145.37" r="4" fill="#d62728" fill-opacity="0.68" />
<circle cx="459.26" cy="145.78" r="4" fill="#d62728" fill-opacity="0.68" />
<circle cx="262.28" cy="145.74" r="4" fill="#d62728" fill-opacity="0.68" />
<circle cx="208.36" cy="144.67" r="4" fill="#d62728" fill-opacity="0.68" />
<circle cx="480.81" cy="145.82" r="4" fill="#d62728" fill-opacity="0.68" />
<circle cx="238.03" cy="145.69" r="4" fill="#d62728" fill-opacity="0.68" />
<circle cx="310.28" cy="416.57" r="4" fill="#d62728" fill-opacity="0.68" />
<circle cx="331.13" cy="417.98" r="4" fill="#d62728" fill-opacity="0.68" />
<circle cx="285.79" cy="416.64" r="4" fill="#d62728" fill-opacity="0.68" />
<circle cx="285.35" cy="418.18" r="4" fill="#d62728" fill-opacity="0.68" />
<circle cx="326.13" cy="419.42" r="4" fill="#d62728" fill-opacity="0.68" />
<circle cx="315.72" cy="417.34" r="4" fill="#d62728" fill-opacity="0.68" />
<circle cx="272.36" cy="409.94" r="4" fill="#d62728" fill-opacity="0.68" />
<circle cx="330.67" cy="417.46" r="4" fill="#d62728" fill-opacity="0.68" />
<circle cx="324.17" cy="416.52" r="4" fill="#d62728" fill-opacity="0.68" />
<circle cx="272.73" cy="420.00" r="4" fill="#d62728" fill-opacity="0.68" />
<circle cx="323.60" cy="418.58" r="4" fill="#d62728" fill-opacity="0.68" />
<circle cx="330.87" cy="416.42" r="4" fill="#d62728" fill-opacity="0.68" />
<circle cx="284.15" cy="411.43" r="4" fill="#d62728" fill-opacity="0.68" />
<circle cx="322.12" cy="419.11" r="4" fill="#d62728" fill-opacity="0.68" />
<circle cx="320.93" cy="417.85" r="4" fill="#d62728" fill-opacity="0.68" />
</svg>
