<svg xmlns="http://www.w3.org/2000/svg" width="760" height="480" viewBox="0 0 760 480">
<rect width="100%" height="100%" fill="white"/>
<text x="380.0" y="28" text-anchor="middle" font-size="20" font-family="Arial">Lambda vs q</text>
<line x1="60" y1="420" x2="700" y2="420" stroke="#222"/>
<line x1="60" y1="60" x2="60" y2="420" stroke="#222"/>
<text x="380.0" y="462" text-anchor="middle" font-size="13" font-family="Arial">lambda_weight</text>
<text x="18" y="240.0" text-anchor="middle" transform="rotate(-90 18 240.0)" font-size="13" font-family="Arial">quality_score</text>
<text x="60" y="440" font-size="11" font-family="Arial">0.562</text>
<text x="700" y="440" text-anchor="end" font-size="11" font-family="Arial">1.28</text>
<text x="52" y="420" text-anchor="end" font-size="11" font-family="Arial">0.224</text>
<text x="52" y="60" text-anchor="end" font-size="11" font-family="Arial">0.729</text>
<circle cx="682.08" cy="308.88" r="4" fill="#1f77b4" fill-opacity="0.68" />
<circle cx="423.47" cy="242.79" r="4" fill="#1f77b4" fill-opacity="0.68" />
<circle cx="239.13" cy="215.43" r="4" fill="#1f77b4" fill-opacity="0.68" />
<circle cx="699.95" cy="309.70" r="4" fill="#1f77b4" fill-opacity="0.68" />
<circle cx="416.11" cy="261.50" r="4" fill="#1f77b4" fill-opacity="0.68" />
<circle cx="228.62" cy="202.92" r="4" fill="#1f77b4" fill-opacity="0.68" />
<circle cx="697.49" cy="301.38" r="4" fill="#1f77b4" fill-opacity="0.68" />
<circle cx="414.06" cy="214.75" r="4" fill="#1f77b4" fill-opacity="0.68" />
<circle cx="233.12" cy="225.67" r="4" fill="#1f77b4" fill-opacity="0.68" />
<circle cx="695.41" cy="313.24" r="4" fill="#1f77b4" fill-opacity="0.68" />
<circle cx="416.57" cy="245.83" r="4" fill="#1f77b4" fill-opacity="0.68" />
<circle cx="232.69" cy="226.19" r="4" fill="#1f77b4" fill-opacity="0.68" />
<circle cx="697.99" cy="289.69" r="4" fill="#1f77b4" fill-opacity="0.68" />
<circle cx="414.00" cy="232.38" r="4" fill="#1f77b4" fill-opacity="0.68" />
<circle cx="232.69" cy="221.58" r="4" fill="#1f77b4" fill-opacity="0.68" />
<circle cx="653.13" cy="105.22" r="4" fill="#1f77b4" fill-opacity="0.68" />
<circle cx="246.47" cy="92.74" r="4" fill="#1f77b4" fill-opacity="0.68" />
<circle cx="445.07" cy="65.03" r="4" fill="#1f77b4" fill-opacity="0.68" />
<circle cx="650.43" cy="180.03" r="4" fill="#1f77b4" fill-opacity="0.68" />
<circle cx="244.71" cy="94.44" r="4" fill="#1f77b4" fill-opacity="0.68" />
<circle cx="449.54" cy="85.28" r="4" fill="#1f77b4" fill-opacity="0.68" />
<circle cx="653.87" cy="120.33" r="4" fill="#1f77b4" fill-opacity="0.68" />
<circle cx="242.47" cy="75.91" r="4" fill="#1f77b4" fill-opacity="0.68" />
<circle cx="448.33" cy="60.00" r="4" fill="#1f77b4" fill-opacity="0.68" />
<circle cx="655.78" cy="175.58" r="4" fill="#1f77b4" fill-opacity="0.68" />
<circle cx="243.50" cy="86.66" r="4" fill="#1f77b4" fill-opacity="0.68" />
<circle cx="445.40" cy="90.75" r="4" fill="#1f77b4" fill-opacity="0.68" />
<circle cx="656.53" cy="131.52" r="4" fill="#1f77b4" fill-opacity="0.68" />
<circle cx="248.61" cy="72.31" r="4" fill="#1f77b4" fill-opacity="0.68" />
<circle cx="439.54" cy="77.34" r="4" fill="#1f77b4" fill-opacity="0.68" />
<circle cx="445.50" cy="252.23" r="4" fill="#1f77b4" fill-opacity="0.68" />
<circle cx="515.66" cy="271.04" r="4" fill="#1f77b4" fill-opacity="0.68" />
<circle cx="383.52" cy="272.33" r="4" fill="#1f77b4" fill-opacity="0.68" />
<circle cx="451.65" cy="266.18" r="4" fill="#1f77b4" fill-opacity="0.68" />
<circle cx="509.70" cy="273.13" r="4" fill="#1f77b4" fill-opacity="0.68" />
<circle cx="383.33" cy="255.60" r="4" fill="#1f77b4" fill-opacity="0.68" />
<circle cx="457.26" cy="253.00" r="4" fill="#1f77b4" fill-opacity="0.68" />
<circle cx="507.85" cy="276.87" r="4" fill="#1f77b4" fill-opacity="0.68" />
<circle cx="379.57" cy="261.91" r="4" fill="#1f77b4" fill-opacity="0.68" />
<circle cx="456.87" cy="247.57" r="4" fill="#1f77b4" fill-opacity="0.68" />
<circle cx="502.41" cy="275.57" r="4" fill="#1f77b4" fill-opacity="0.68" />
<circle cx="385.39" cy="256.73" r="4" fill="#1f77b4" fill-opacity="0.68" />
<circle cx="458.48" cy="248.35" r="4" fill="#1f77b4" fill-opacity="0.68" />
<circle cx="509.02" cy="273.05" r="4" fill="#1f77b4" fill-opacity="0.68" />
<circle cx="377.18" cy="258.61" r="4" fill="#1f77b4" fill-opacity="0.68" />
<circle cx="584.79" cy="156.67" r="4" fill="#1f77b4" fill-opacity="0.68" />
<circle cx="60.03" cy="157.74" r="4" fill="#1f77b4" fill-opacity="0.68" />
<circle cx="699.85" cy="156.05" r="4" fill="#1f77b4" fill-opacity="0.68" />
<circle cx="584.68" cy="155.85" r="4" fill="#1f77b4" fill-opacity="0.68" />
<circle cx="60.00" cy="157.41" r="4" fill="#1f77b4" fill-opacity="0.68" />
<circle cx="700.00" cy="154.67" r="4" fill="#1f77b4" fill-opacity="0.68" />
<circle cx="584.73" cy="156.06" r="4" fill="#1f77b4" fill-opacity="0.68" />
<circle cx="60.01" cy="157.97" r="4" fill="#1f77b4" fill-opacity="0.68" />
<circle cx="699.93" cy="154.92" r="4" fill="#1f77b4" fill-opacity="0.68" />
<circle cx="584.78" cy="156.96" r="4" fill="#1f77b4" fill-opacity="0.68" />
<circle cx="60.01" cy="154.20" r="4" fill="#1f77b4" fill-opacity="0.68" />
<circle cx="699.89" cy="153.49" r="4" fill="#1f77b4" fill-opacity="0.68" />
<circle cx="585.15" cy="153.13" r="4" fill="#1f77b4" fill-opacity="0.68" />
<circle cx="60.02" cy="155.49" r="4" fill="#1f77b4" fill-opacity="0.68" />
<circle cx="699.51" cy="152.18" r="4" fill="#1f77b4" fill-opacity="0.68" />
<circle cx="448.77" cy="410.92" r="4" fill="#1f77b4" fill-opacity="0.68" />
<circle cx="494.94" cy="418.62" r="4" fill="#1f77b4" fill-opacity="0.68" />
<circle cx="400.97" cy="418.36" r="4" fill="#1f77b4" fill-opacity="0.68" />
<circle cx="444.32" cy="410.20" r="4" fill="#1f77b4" fill-opacity="0.68" />
<circle cx="494.30" cy="416.50" r="4" fill="#1f77b4" fill-opacity="0.68" />
<circle cx="406.05" cy="415.24" r="4" fill="#1f77b4" fill-opacity="0.68" />
<circle cx="447.67" cy="413.37" r="4" fill="#1f77b4" fill-opacity="0.68" />
<circle cx="495.89" cy="416.42" r="4" fill="#1f77b4" fill-opacity="0.68" />
<circle cx="401.12" cy="418.03" r="4" fill="#1f77b4" fill-opacity="0.68" />
<circle cx="446.24" cy="405.74" r="4" fill="#1f77b4" fill-opacity="0.68" />
<circle cx="495.73" cy="415.18" r="4" fill="#1f77b4" fill-opacity="0.68" />
<circle cx="402.70" cy="418.40" r="4" fill="#1f77b4" fill-opacity="0.68" />
<circle cx="445.92" cy="410.79" r="4" fill="#1f77b4" fill-opacity="0.68" />
<circle cx="497.38" cy="411.66" r="4" fill="#1f77b4" fill-opacity="0.68" />
<circle cx="401.37" cy="420.00" r="4" fill="#1f77b4" fill-opacity="0.68" />
<circle cx="598.40" cy="308.88" r="4" fill="#d62728" fill-opacity="0.68" />
<circle cx="456.58" cy="242.79" r="4" fill="#d62728" fill-opacity="0.68" />
<circle cx="289.69" cy="215.43" r="4" fill="#d62728" fill-opacity="0.68" />
<circle cx="595.78" cy="309.70" r="4" fill="#d62728" fill-opacity="0.68" />
<circle cx="448.92" cy="261.50" r="4" fill="#d62728" fill-opacity="0.68" />
<circle cx="299.97" cy="202.92" r="4" fill="#d62728" fill-opacity="0.68" />
<circle cx="592.49" cy="301.38" r="4" fill="#d62728" fill-opacity="0.68" />
<circle cx="449.50" cy="214.75" r="4" fill="#d62728" fill-opacity="0.68" />
<circle cx="302.68" cy="225.67" r="4" fill="#d62728" fill-opacity="0.68" />
<circle cx="592.40" cy="313.24" r="4" fill="#d62728" fill-opacity="0.68" />
<circle cx="449.00" cy="245.83" r="4" fill="#d62728" fill-opacity="0.68" />
<circle cx="303.27" cy="226.19" r="4" fill="#d62728" fill-opacity="0.68" />
<circle cx="594.15" cy="289.69" r="4" fill="#d62728" fill-opacity="0.68" />
<circle cx="447.64" cy="232.38" r="4" fill="#d62728" fill-opacity="0.68" />
<circle cx="302.88" cy="221.58" r="4" fill="#d62728" fill-opacity="0.68" />
<circle cx="614.81" cy="105.22" r="4" fill="#d62728" fill-opacity="0.68" />
<circle cx="346.80" cy="92.74" r="4" fill="#d62728" fill-opacity="0.68" />
<circle cx="383.07" cy="65.03" r="4" fill="#d62728" fill-opacity="0.68" />
<circle cx="598.57" cy="180.03" r="4" fill="#d62728" fill-opacity="0.68" />
<circle cx="351.48" cy="94.44" r="4" fill="#d62728" fill-opacity="0.68" />
<circle cx="394.62" cy="85.28" r="4" fill="#d62728" fill-opacity="0.68" />
<circle cx="600.01" cy="120.33" r="4" fill="#d62728" fill-opacity="0.68" />
<circle cx="350.92" cy="75.91" r="4" fill="#d62728" fill-opacity="0.68" />
<circle cx="393.75" cy="60.00" r="4" fill="#d62728" fill-opacity="0.68" />
<circle cx="600.39" cy="175.58" r="4" fill="#d62728" fill-opacity="0.68" />
<circle cx="351.74" cy="86.66" r="4" fill="#d62728" fill-opacity="0.68" />
<circle cx="392.55" cy="90.75" r="4" fill="#d62728" fill-opacity="0.68" />
<circle cx="601.13" cy="131.52" r="4" fill="#d62728" fill-opacity="0.68" />
<circle cx="352.37" cy="72.31" r="4" fill="#d62728" fill-opacity="0.68" />
<circle cx="391.17" cy="77.34" r="4" fill="#d62728" fill-opacity="0.68" />
<circle cx="420.11" cy="252.23" r="4" fill="#d62728" fill-opacity="0.68" />
<circle cx="513.99" cy="271.04" r="4" fill="#d62728" fill-opacity="0.68" />
<circle cx="410.57" cy="272.33" r="4" fill="#d62728" fill-opacity="0.68" />
<circle cx="417.27" cy="266.18" r="4" fill="#d62728" fill-opacity="0.68" />
<circle cx="510.47" cy="273.13" r="4" fill="#d62728" fill-opacity="0.68" />
<circle cx="416.94" cy="255.60" r="4" fill="#d62728" fill-opacity="0.68" />
<circle cx="419.47" cy="253.00" r="4" fill="#d62728" fill-opacity="0.68" />
<circle cx="511.57" cy="276.87" r="4" fill="#d62728" fill-opacity="0.68" />
<circle cx="413.63" cy="261.91" r="4" fill="#d62728" fill-opacity="0.68" />
<circle cx="417.04" cy="247.57" r="4" fill="#d62728" fill-opacity="0.68" />
<circle cx="509.54" cy="275.57" r="4" fill="#d62728" fill-opacity="0.68" />
<circle cx="418.10" cy="256.73" r="4" fill="#d62728" fill-opacity="0.68" />
<circle cx="416.64" cy="248.35" r="4" fill="#d62728" fill-opacity="0.68" />
<circle cx="512.54" cy="273.05" r="4" fill="#d62728" fill-opacity="0.68" />
<circle cx="415.49" cy="258.61" r="4" fill="#d62728" fill-opacity="0.68" />
<circle cx="504.33" cy="156.67" r="4" fill="#d62728" fill-opacity="0.68" />
<circle cx="245.69" cy="157.74" r="4" fill="#d62728" fill-opacity="0.68" />
<circle cx="594.65" cy="156.05" r="4" fill="#d62728" fill-opacity="0.68" />
<circle cx="510.65" cy="155.85" r="4" fill="#d62728" fill-opacity="0.68" />
<circle cx="246.24" cy="157.41" r="4" fill="#d62728" fill-opacity="0.68" />
<circle cx="587.79" cy="154.67" r="4" fill="#d62728" fill-opacity="0.68" />
<circle cx="509.98" cy="156.06" r="4" fill="#d62728" fill-opacity="0.68" />
<circle cx="245.94" cy="157.97" r="4" fill="#d62728" fill-opacity="0.68" />
<circle cx="588.76" cy="154.92" r="4" fill="#d62728" fill-opacity="0.68" />
<circle cx="511.24" cy="156.96" r="4" fill="#d62728" fill-opacity="0.68" />
<circle cx="247.17" cy="154.20" r="4" fill="#d62728" fill-opacity="0.68" />
<circle cx="586.27" cy="153.49" r="4" fill="#d62728" fill-opacity="0.68" />
<circle cx="510.67" cy="153.13" r="4" fill="#d62728" fill-opacity="0.68" />
<circle cx="246.04" cy="155.49" r="4" fill="#d62728" fill-opacity="0.68" />
<circle cx="587.97" cy="152.18" r="4" fill="#d62728" fill-opacity="0.68" />
<circle cx="436.68" cy="410.92" r="4" fill="#d62728" fill-opacity="0.68" />
<circle cx="467.82" cy="418.62" r="4" fill="#d62728" fill-opacity="0.68" />
<circle cx="440.17" cy="418.36" r="4" fill="#d62728" fill-opacity="0.68" />
<circle cx="436.84" cy="410.20" r="4" fill="#d62728" fill-opacity="0.68" />
<circle cx="474.59" cy="416.50" r="4" fill="#d62728" fill-opacity="0.68" />
<circle cx="433.25" cy="415.24" r="4" fill="#d62728" fill-opacity="0.68" />
<circle cx="445.12" cy="413.37" r="4" fill="#d62728" fill-opacity="0.68" />
<circle cx="471.55" cy="416.42" r="4" fill="#d62728" fill-opacity="0.68" />
<circle cx="428.01" cy="418.03" r="4" fill="#d62728" fill-opacity="0.68" />
<circle cx="443.11" cy="405.74" r="4" fill="#d62728" fill-opacity="0.68" />
<circle cx="472.46" cy="415.18" r="4" fill="#d62728" fill-opacity="0.68" />
<circle cx="429.11" cy="418.40" r="4" fill="#d62728" fill-opacity="0.68" />
<circle cx="445.20" cy="410.79" r="4" fill="#d62728" fill-opacity="0.68" />
<circle cx="474.13" cy="411.66" r="4" fill="#d62728" fill-opacity="0.68" />
<circle cx="425.35" cy="420.00" r="4" fill="#d62728" fill-opacity="0.68" />
</svg>
